Coordinates
version=1
nRows=17
nColumns=40
inDegrees=yes

Units are S.I. units (second, meters, Newtons, ...)
Angles are in degrees.

endheader
time	pelvis_tilt	pelvis_list	pelvis_rotation	pelvis_tx	pelvis_ty	pelvis_tz	hip_flexion_r	hip_adduction_r	hip_rotation_r	knee_angle_r	knee_angle_r_beta	ankle_angle_r	subtalar_angle_r	mtp_angle_r	hip_flexion_l	hip_adduction_l	hip_rotation_l	knee_angle_l	knee_angle_l_beta	ankle_angle_l	subtalar_angle_l	mtp_angle_l	lumbar_extension	lumbar_bending	lumbar_rotation	arm_flex_r	arm_add_r	arm_rot_r	elbow_flex_r	pro_sup_r	wrist_flex_r	wrist_dev_r	arm_flex_l	arm_add_l	arm_rot_l	elbow_flex_l	pro_sup_l	wrist_flex_l	wrist_dev_l
     10.27000000	     -4.75436305	     -3.95084851	     -2.38402632	      0.96379807	      0.91770001	      0.54812695	     15.82662933	      5.22515357	     -5.20524155	     26.80333174	     26.80333174	     17.02457726	     -6.51409599	     -0.09303258	     22.98756940	    -11.84382521	      1.17196180	     62.89200301	     62.89200301	     13.25419633	    -19.23890272	     18.03065487	     -9.86082929	      7.14446501	      0.81064847	      4.98972632	    -16.08556390	    -19.97614178	     23.62132940	     40.27381776	      0.00000000	      0.00000000	     24.30859420	    -11.91064162	     -1.81915874	     43.43727037	     39.62850608	      0.00000000	      0.00000000
     10.28942857	     -4.39065396	     -3.95275448	     -1.41882352	      0.96259425	      0.91569005	      0.54926321	     15.71173245	      5.35371459	     -5.18004707	     27.94193042	     27.94193042	     17.72384146	     -8.23936002	     -0.10887863	     24.49973459	    -12.08829584	      1.31915399	     63.21866658	     63.21866658	     14.06993518	    -19.39863636	     18.71054938	    -10.01368613	      6.85918025	      0.32196228	      7.19758222	    -15.55185615	    -20.16490865	     25.20319080	     40.33861955	      0.00000000	      0.00000000	     22.08770276	    -11.42834393	     -1.32688909	     41.32501501	     39.67488540	      0.00000000	      0.00000000
     10.30885714	     -3.92577827	     -4.01386301	     -0.46537884	      0.96140074	      0.91381338	      0.55041027	     15.38634503	      5.58295764	     -5.11966050	     28.89917486	     28.89917486	     18.31898901	     -9.91750927	      0.03778124	     25.92486825	    -12.35657828	      1.44846000	     63.40945185	     63.40945185	     15.17112161	    -19.49838366	     20.10160779	    -10.28761329	      6.61557796	     -0.05141069	      9.36883961	    -15.11706394	    -20.28058383	     27.08622442	     40.40134016	      0.00000000	      0.00000000	     20.03591392	    -10.88813411	     -0.76113765	     38.68249423	     39.74089814	      0.00000000	      0.00000000
     10.32828571	     -3.51983085	     -4.03781710	      0.49265974	      0.96018530	      0.91200020	      0.55145088	     15.09566462	      5.75464952	     -5.20554250	     29.81071104	     29.81071104	     18.95182175	    -11.36659117	      0.16898620	     27.32165901	    -12.51138144	      1.57137238	     63.24599910	     63.24599910	     16.13578372	    -19.56424296	     21.37626074	    -10.54260904	      6.35318136	     -0.30924595	     11.48950025	    -14.69274516	    -20.26570504	     29.11436509	     40.43115738	      0.00000000	      0.00000000	     18.02782386	    -10.31139468	     -0.23562554	     36.01124459	     39.79367470	      0.00000000	      0.00000000
     10.34771429	     -3.07288808	     -4.08165269	      1.38727038	      0.95908269	      0.91064831	      0.55229410	     14.56219703	      5.86505056	     -5.58589564	     30.37376143	     30.37376143	     19.51392968	    -12.05871840	      0.06208792	     28.45984920	    -12.65407086	      1.58528156	     62.57247378	     62.57247378	     16.64714068	    -19.60465119	     21.57183166	    -10.90129069	      6.09242591	      0.49053405	     13.24850381	    -14.89637974	    -20.22977012	     30.13256762	     40.41782519	      0.00000000	      0.00000000	     16.01456970	     -9.22386378	      0.04986708	     34.88023929	     39.76079950	      0.00000000	      0.00000000
     10.36714286	     -2.84557375	     -4.02904764	      2.28379142	      0.95772131	      0.90929677	      0.55293738	     14.36927930	      5.95146758	     -5.68810281	     31.06652632	     31.06652632	     19.92955426	    -13.36765640	      0.32718887	     29.73462959	    -12.54124052	      1.65941700	     61.56327360	     61.56327360	     17.24849473	    -19.62470875	     22.43433202	    -11.00505337	      5.82034408	     -0.51725785	     15.91086330	    -14.10478045	    -20.08543900	     32.94789175	     40.36966382	      0.00000000	      0.00000000	     13.65277418	     -9.23219674	      0.46141761	     31.92999686	     39.77911249	      0.00000000	      0.00000000
     10.38657143	     -2.68043141	     -4.01290062	      3.18263816	      0.95643851	      0.90850899	      0.55340642	     13.96965280	      6.01685211	     -6.03462405	     31.25691670	     31.25691670	     20.45125570	    -14.03857474	      0.82050241	     30.88731410	    -12.30546542	      1.90612934	     60.09850733	     60.09850733	     17.59015222	    -19.61806211	     23.24246330	    -11.07054846	      5.50090078	     -0.66686818	     17.54419525	    -13.74453507	    -19.58150096	     36.43099630	     40.33622917	      0.00000000	      0.00000000	     11.84939123	     -8.80185673	      0.88284129	     29.00256386	     39.88132925	      0.00000000	      0.00000000
     10.40600000	     -2.58729356	     -3.91140580	      3.98728347	      0.95509667	      0.90823140	      0.55352860	     13.57613747	      5.92647233	     -6.46664696	     31.32154314	     31.32154314	     20.81519509	    -14.35939501	      1.16335279	     31.80848358	    -11.88642989	      2.08969119	     58.09786381	     58.09786381	     17.52314767	    -19.60401696	     23.24105007	    -11.14106658	      5.12655320	     -0.54237202	     19.22517417	    -13.63025149	    -19.03323479	     39.77254211	     40.29322833	      0.00000000	      0.00000000	      9.83979929	     -8.34973963	      1.15370434	     27.01053037	     39.96361918	      0.00000000	      0.00000000
     10.42542857	     -2.67065683	     -3.86466543	      4.71694413	      0.95371189	      0.90822417	      0.55340068	     13.26917584	      5.83568807	     -6.99739809	     31.17715740	     31.17715740	     21.12795136	    -14.37592514	      1.60243210	     32.68937520	    -11.42920720	      2.35284300	     55.69216317	     55.69216317	     17.01299301	    -19.56682467	     22.47999738	    -11.06791479	      4.83191677	     -0.13690193	     20.28866177	    -13.89401694	    -17.90843457	     44.62828496	     40.25181227	      0.00000000	      0.00000000	      7.84478503	     -7.90539126	      1.39380468	     25.42368225	     40.14164792	      0.00000000	      0.00000000
     10.44485714	     -2.78008017	     -3.66165564	      5.34335395	      0.95236394	      0.90894171	      0.55305115	     12.83640667	      5.57234495	     -7.44945746	     30.77878555	     30.77878555	     21.27808201	    -14.26163942	      1.92117764	     33.18756146	    -10.75389976	      2.57706201	     52.71358293	     52.71358293	     16.07247559	    -19.49892949	     21.15952550	    -11.07057551	      4.35221925	      0.67120956	     20.87131765	    -14.65623544	    -16.33588710	     50.08983916	     40.32311213	      0.00000000	      0.00000000	      5.83422746	     -7.57724731	      1.70651937	     24.70261928	     40.43876370	      0.00000000	      0.00000000
     10.46428571	     -3.00381471	     -3.51550297	      5.93850166	      0.95095346	      0.90994141	      0.55241374	     12.42022744	      5.32246453	     -7.99060265	     30.16480646	     30.16480646	     21.25269879	    -13.96693700	      1.97187905	     33.62030533	     -9.99199218	      3.09279803	     49.50157273	     49.50157273	     15.25934491	    -19.38428395	     20.54282924	    -10.89788281	      3.93587675	      0.63333022	     23.11276764	    -14.54931593	    -16.06944927	     52.97098987	     40.33558602	      0.00000000	      0.00000000	      3.47141511	     -7.48538793	      1.91368674	     23.84304230	     40.49455638	      0.00000000	      0.00000000
     10.48371429	     -3.25237491	     -3.32286688	      6.45219512	      0.94966249	      0.91129816	      0.55156523	     11.90600376	      5.01838836	     -8.49975788	     29.33616417	     29.33616417	     21.04832962	    -13.59643116	      1.78197910	     33.69413634	     -9.24655565	      3.52349495	     45.80662730	     45.80662730	     13.41127830	    -19.20809683	     17.41261613	    -10.80431327	      3.50336029	      1.18514075	     24.30794091	    -15.28413386	    -15.09874110	     58.02950244	     40.59859438	      0.00000000	      0.00000000	      1.08958381	     -7.47957707	      2.73084698	     24.10803841	     40.78331197	      0.00000000	      0.00000000
     10.50314286	     -3.59007836	     -3.08369499	      6.90346861	      0.94833976	      0.91286201	      0.55045502	     11.43120692	      4.63268380	     -9.01422273	     28.43510229	     28.43510229	     20.92446591	    -13.06574063	      1.84545962	     33.71062651	     -8.35629796	      4.23302911	     42.10733915	     42.10733915	     12.46518005	    -18.82889429	     17.25195135	    -10.53776794	      3.01499830	      1.26122818	     26.64451561	    -15.17918587	    -15.00651578	     60.41761532	     40.57757951	      0.00000000	      0.00000000	     -1.10421618	     -7.46577334	      2.89051366	     23.41499425	     40.77913874	      0.00000000	      0.00000000
     10.52257143	     -3.91207429	     -2.92152905	      7.31436048	      0.94711726	      0.91439495	      0.54911665	     10.89648561	      4.27172289	     -9.72747886	     27.46434164	     27.46434164	     20.73922758	    -12.12662436	      1.74326360	     33.50761340	     -7.62936535	      4.95099476	     38.31233523	     38.31233523	     11.25597452	    -18.21469440	     15.77253925	    -10.41770989	      2.62373408	      1.13479279	     28.95502416	    -15.13690784	    -14.55555356	     64.12718394	     40.52926070	      0.00000000	      0.00000000	     -3.48594334	     -7.43183208	      3.10347904	     23.25056164	     40.78154429	      0.00000000	      0.00000000
     10.54200000	     -4.30493353	     -2.87511511	      7.61097420	      0.94612674	      0.91547722	      0.54783173	     10.48065174	      4.05069413	    -10.32903784	     26.57312551	     26.57312551	     20.46490576	    -11.31150271	      1.16197071	     33.16263903	     -7.29515750	      5.23313438	     34.31113889	     34.31113889	      8.71186355	    -17.22977067	     10.42895183	    -10.18584410	      2.32926036	      1.89818830	     29.98231565	    -16.36126482	    -13.30726844	     69.75457173	     40.60552992	      0.00000000	      0.00000000	     -5.89657329	     -7.62903047	      3.93842339	     24.81488445	     40.85025059	      0.00000000	      0.00000000
     10.56142857	     -4.59393609	     -2.85541531	      7.86483598	      0.94523934	      0.91666633	      0.54633779	      9.86342917	      3.92072864	    -10.79590929	     25.50566131	     25.50566131	     20.15890827	    -10.60224379	      0.79405766	     32.67400825	     -7.03418917	      5.47691044	     30.62066173	     30.62066173	      7.17307036	    -15.81642719	      7.61420011	    -10.03093258	      2.11347734	      2.26018124	     32.17417826	    -16.73945856	    -12.95711056	     72.88264261	     40.90142132	      0.00000000	      0.00000000	     -7.94762381	     -7.82905388	      5.67658894	     25.11481827	     40.89291829	      0.00000000	      0.00000000
     10.58085714	     -4.91622246	     -2.79671278	      8.11124963	      0.94443535	      0.91755129	      0.54462612	      9.34879490	      3.75333156	    -11.16795102	     24.59938317	     24.59938317	     20.05167048	    -10.05915740	      0.87404850	     32.30454402	     -6.76353469	      5.55480966	     27.51001674	     27.51001674	      6.93700104	    -13.81398120	      7.81801659	     -9.81070443	      1.81426843	      2.39459432	     34.63569867	    -16.85412044	    -12.87060329	     74.85591543	     40.89057032	      0.00000000	      0.00000000	     -9.65722674	     -7.78143551	      5.93516661	     24.65534818	     40.87119573	      0.00000000	      0.00000000
